<svg xmlns="http://www.w3.org/2000/svg" viewBox="1295 292 50 50">
  <g fill="#FFFFFF">
    <path d="M1303.13,311.15c.01.39.03.78.04,1.17,1.9-1.94,3.81-3.89,5.71-5.83.22-.38.44-.81.63-1.29.65-1.65.69-3.18.62-4.21-.52.28-.86.6-1.06.83-.52.58-.74,1.19-.94,1.73-.13.36-.21.68-.26.89-.1.86-.19,1.72-.29,2.57-1.49,1.38-2.97,2.76-4.46,4.14Z"/>
    <path d="M1313.03,297.85c.02,1.08.04,2.17.06,3.25-.03.43-.15,1.15-.58,1.94-.5.91-1.16,1.44-1.53,1.69-.14-.73-.25-1.84.03-3.14.25-1.16.69-1.97.84-2.22.4-.69.84-1.19,1.18-1.53Z"/>
    <path d="M1316.07,295.55c.14,1.11.11,2.07.01,2.86-.04.33-.07.59-.17.89-.15.49-.56,1.49-1.94,2.41-.19-1.31-.11-2.37,0-3.08.16-1.11.42-1.56.54-1.75.48-.76,1.17-1.15,1.56-1.33Z"/>
    <path d="M1318.75,294.09c-.24-.03-.77-.06-1.18.28-.37.3-.48.74-.55,1.25-.1.71-.19,1.8-.01,3.23.28-.19.69-.51,1.06-1.02.48-.67.65-1.33.72-1.71.09-.28.18-.72.14-1.25-.03-.31-.09-.58-.17-.78Z"/>
    <path d="M1319.31,297.14c.03-.51.15-1.27.61-2.04,1.25-2.1,3.86-2.29,4.16-2.31-.03.33-.25,2.1-1.82,3.33-1.21.95-2.51,1.01-2.94,1.02Z"/>
    <path d="M1318.03,299c.18-.25.59-.75,1.29-1.05.41-.17.77-.22,1.03-.23h2.28c-.02.19-.09.53-.36.81-.25.26-.57.35-.84.4-1.19.22-3.08.09-3.41.07Z"/>
    <path d="M1315.63,301.4c.2-.26.51-.6.96-.91.58-.4,1.15-.56,1.5-.63h3.17c.01.13.03.46-.17.8-.29.51-.8.64-.89.66l-4.57.08Z"/>
    <path d="M1315.85,302.58c-.49.1-1.24.31-2.02.81-.57.36-.98.77-1.27,1.09,1.79-.01,3.59-.03,5.38-.04.21-.07.75-.29,1.16-.85.29-.41.38-.81.41-1.03-1.22,0-2.44.02-3.66.03Z"/>
    <path d="M1308.22,308.48c.41-.56,1.06-1.32,2.04-1.98.57-.39,1.12-.66,1.58-.84,1.16,0,2.31,0,3.47-.01,0,.38-.08.78-.32,1.11-.56.79-1.73.88-3.01.98-1,.08-1.15-.04-1.91.1-.8.15-1.43.43-1.84.65Z"/>
    <path d="M1312.86,309.17c-1.1.05-2.19.09-3.29.14-.33,0-1.82.08-2.94,1.28-.64.68-.88,1.43-.98,1.83.96-.75,1.82-1.08,2.44-1.24,1.77-.47,3.03.05,4.03-.83.43-.38.64-.85.74-1.18Z"/>
    <path d="M1305.13,316.26c-.08-.36-.14-.94.08-1.57.6-1.73,2.7-2.1,2.79-2.12,1.2-.24,2.39-.49,3.59-.73-.1.38-.29.94-.76,1.42-.86.89-1.9.75-3.32,1.35-.62.26-1.48.73-2.39,1.65Z"/>
    <path d="M1310.11,315.54c-.29.05-3.39.65-4.25,2.28-.17.31-.46.87-.28,1.49.12.4.4.65.56.78.76-.55,1.23-1.1,1.53-1.5.47-.64.56-1.01,1.05-1.67.5-.67,1.02-1.12,1.39-1.39Z"/>
    <path d="M1324.44,295.18c.72.46.83.92.85,1.09.08.64-.49,1.21-1.44,2.19-.32.33-.61.58-.81.75.04-.66.23-1.1.39-1.38.38-.68.85-.85,1.04-1.47.15-.46.06-.91-.03-1.19Z"/>
    <path d="M1325.24,294.87c.64-.62,1.53-.79,2.18-.43.75.41.83,1.33.85,1.55.01.22.02.92-.77,1.89-.98,1.2-1.98,1.36-3.6,2.28-.68.39-1.65,1.01-2.72,2,.21-.32.56-.79,1.04-1.31.96-1.02,1.56-1.26,2.88-2.48,1.38-1.28,1.45-1.69,1.43-1.94-.04-.8-.92-1.36-1.28-1.56Z"/>
    <path d="M1320.72,303.41c.79-.31,1.69-.61,2.7-.87.9-.23,1.73-.39,2.49-.5.19-.3.51-.74,1.03-1.13,1.28-.97,2.27-.54,3.74-1.46.37-.23,1.67-1.04,1.53-1.91-.11-.66-1.03-1.13-1.78-1.2-.6-.05-1.08.16-1.31.29.04.19.08.46.02.78-.18.91-1.02,1.44-1.95,1.99-2.33,1.37-3.34,1.73-4.7,2.64-.81.54-1.41,1.05-1.76,1.37Z"/>
    <path d="M1327.67,301.81c1.11-.6,2.05-.88,2.71-1.03.72-.16,1.11-.16,1.65-.5.82-.52.97-1.2,1.35-1.13.38.06.6.81.6,1.35,0,.81-.53,1.35-.68,1.49-.78-.1-1.62-.17-2.51-.21-1.12-.05-2.17-.03-3.12.02Z"/>
    <path d="M1325.22,303.24c-.22.01-2.5.17-3.63,2.08-.6,1.01-.59,2.03-.55,2.47.25,0,.55.03.88.1.55.13.97.34,1.26.52.09-.69.27-1.53.61-2.46.43-1.16.97-2.06,1.43-2.71Z"/>
    <path d="M1320.63,304.63c-.31-.13-.76-.28-1.3-.26-1.83.07-3.11,2.01-5.25,5.62-1.25,2.11-2.6,4.48-4.01,7.08,1.14-.53,2.74-1.43,4.36-2.9,1.77-1.6,2.76-3.16,3.65-4.55.77-1.2,1.71-2.87,2.54-4.99Z"/>
    <path d="M1314.2,315.89c-.41.32-1.09.82-1.99,1.33-1.62.92-2.35.97-3.44,1.93-.54.48-1.14,1.02-1.34,1.93-.18.8.03,1.49.18,1.86,1.35-1.11,2.82-2.48,4.28-4.15.88-1,1.64-1.97,2.31-2.9Z"/>
    <path d="M1308.87,323.01c.78-.59,1.59-1.27,2.4-2.05,2.52-2.44,4.13-5.03,5.16-7.11.47-.54.94-1.08,1.4-1.62,0,.36.06,1.01.4,1.72.31.63.71,1.04.97,1.27-.94,1.3-1.8,2.31-2.45,3.01-2.01,2.21-3.49,3.8-5.83,4.47-.85.24-1.59.3-2.06.31Z"/>
    <path d="M1322.79,309.63c-.13.61-.23,1.39-.21,2.29.04,1.35.34,2.46.62,3.21-.48.05-1.88.14-3.02-.73-.2-.15-.56-.43-.84-.93-.34-.62-.33-1.2-.31-1.99.02-.71.04-1.26.41-1.8.07-.1.26-.37.55-.55.7-.44,1.81-.21,2.8.5Z"/>
    <path d="M1322.2,316.29c.57,0,1.15-.01,1.72-.02.38.45.94,1.02,1.72,1.54.95.63,1.86.95,2.49,1.11-.24.69-.48,1.39-.72,2.08-.76-.32-1.89-.9-3.01-1.92-1.12-1.02-1.8-2.07-2.2-2.8Z"/>
    <path d="M1320.25,315.87c.18.08.35.15.53.23.4.9,1.17,2.32,2.59,3.67,1.28,1.22,2.58,1.91,3.45,2.28-.38.45-.76.91-1.15,1.36-.97-.28-3.54-1.17-5.24-3.72-.6-.9-.95-1.79-1.15-2.51.32-.44.65-.88.97-1.32Z"/>
    <path d="M1318.2,318.32c.38.84,1.03,1.98,2.1,3.12,1.58,1.67,3.31,2.49,4.31,2.87-.56.37-1.12.74-1.68,1.1-.78-.09-2.07-.33-3.48-1.11-1.4-.78-2.29-1.74-2.78-2.35,0-.44.04-1.23.44-2.11.34-.73.78-1.23,1.08-1.52Z"/>
    <path d="M1326.79,328.45c-.37-.39-.95-.93-1.8-1.34-1.21-.59-2.29-.6-2.79-.63-1.25-.08-3.08-.64-5.49-2.85.06.57.24,1.41.79,2.22,1.26,1.84,3.58,2.21,5.41,2.51.91.15,2.24.27,3.87.09Z"/>
    <path d="M1326.15,326.45c.35-.02.81-.08,1.33-.26.4-.13.73-.3.98-.45.34.12,1.39.53,2.14,1.66.16.25.82,1.31.67,2.77-.18,1.71-1.35,2.7-1.59,2.89-.08-.61-.22-1.49-.5-2.53-.2-.75-.32-1.22-.56-1.69-.27-.54-.9-1.56-2.48-2.38Z"/>
    <path d="M1332.27,330.95c.3-.21,1.54-1.13,1.76-2.71.25-1.8-.92-3.72-2.94-4.58-.46.46-.92.92-1.38,1.37.47.3,1.33.94,1.95,2.06.94,1.7.7,3.35.61,3.86Z"/>
    <path d="M1333.13,320.86c.37.12,1.09.41,1.62,1.11.78,1.04.83,2.54.15,3.86-.21-.46-.59-1.14-1.25-1.82-.7-.71-1.42-1.11-1.89-1.32.45-.61.91-1.22,1.36-1.84Z"/>
    <path d="M1325.2,325.35c1.23-.06,2.12-.41,2.63-.66,1.26-.62,2.02-1.51,2.71-2.33.51-.6,1.04-1.23,1.58-2.17.38-.67.71-1.39,1.52-1.95.27-.19.51-.3.68-.37.08-.11.32-.43.33-.91.01-.43-.15-.74-.23-.86-1.28.03-2.97.29-4.11,1.5-1.04,1.1-.9,2.23-1.81,3.99-.53,1.04-1.48,2.42-3.31,3.76Z"/>
    <path d="M1335.54,312.47c-.07-.54-.33-1.12-1.54-2.72-.28-.36-.65-.85-.73-1.5-.06-.47.05-.64.13-.72.16-.15.33-.06.47-.16.33-.25,0-1.2-.26-2.15-.14-.52-.32-1.23-.47-2.11-1.07-.17-2.36-.28-3.8-.25-1.02.03-1.94.13-2.76.26-1,1.42-2.04,3.41-2.44,5.91-.32,1.97-.71,4.42.79,6.44,1.19,1.59,2.96,2.13,3.77,2.31.23-.43.69-1.15,1.51-1.75,1.28-.94,2.63-1,3.13-1-.2-.05-.58-.17-.95-.5-.29-.26-.45-.54-.53-.71.87-.18,1.5-.12,1.94-.03.28.06.68.18,1.09,0,.31-.15.47-.4.5-.46.09-.14.2-.4.15-.86ZM1331.22,310.15c-.39.36-.9.32-1.33.29-.51-.03-.91-.2-1.14-.32.37.01.66-.05.84-.11.28-.09.48-.15.63-.34.19-.24.17-.54.16-.65-.28-.02-.58-.04-.89-.03-.9.01-1.69.16-2.32.34.07.21.14.42.2.63-.19-.05-.54-.17-.89-.46-.37-.3-.56-.63-.64-.82.25-.05,3.73-.68,4.62-.59.22.02.39.1.42.11.1.05.63.29.75.85.12.62-.38,1.08-.41,1.1ZM1332.3,308.45c-.44-.4-1.34-1.11-2.5-1.14-.67-.03-1.41.17-1.68.24-.42.11-.76.24-1,.34-.05-.02-.13-.07-.15-.15-.08-.34.97-.96,1.92-1.22.39-.1.97-.26,1.71-.12.87.15,1.45.6,1.71.82,0,.41,0,.82,0,1.23Z"/>
    <path d="M1328.15,336.07c.45.07.91.13,1.36.2-.32-1.1-.63-2.22-.95-3.33-.31-1.11-.62-2.21-.92-3.3-1.51.29-3.51.41-5.71-.15-1.69-.44-4.69-1.21-6.02-3.89-.84-1.7-.65-3.42-.47-4.28-.42.5-1.1,1.19-2.12,1.78-.77.45-1.5.69-2.04.83-.52,1.47-1.03,2.94-1.55,4.41.38.02.76.05,1.14.07.44-1.16.89-2.31,1.33-3.47.32-.2.63-.4.95-.6-.43,1.52-.85,3.05-1.28,4.57.79.2,1.94.55,3.25,1.18,1.02.49,1.39.78,2.83,1.67,1.51.93,3.22,1.99,5.2,2.88.82.37,2.05.87,3.61,1.33-.38-1.49-.76-2.99-1.14-4.48.4.13.8.25,1.2.38.44,1.41.88,2.81,1.32,4.22Z"/>
    <path d="M1339.24,336.15c-1.35,1.15-2.8,2.18-4.35,3.05-.01,0-.03,0-.05,0-2.03.32-4.4.42-6.93-.06-2.83-.54-5.16-1.66-5.6-1.87-1.69-.83-1.81-1.15-5.43-3.34-3.45-2.08-4.59-2.54-5.2-2.76-1.84-.68-3.44-.96-4.51-1.09.63-.17,1.59-.38,2.76-.35,1,.03,2.51.24,5.76,1.97,2.34,1.25,2.53,1.66,4.47,2.74,0,0,2.79,1.55,5.71,2.4,5.18,1.52,10.6-.17,13.19-1.17.05.11.12.27.18.47Z"/>
    <path d="M1331.51,340.45c.04.26-1.52.87-8.77,2.44-.27.56-.7,1.24-1.29,1.29-.73.06-1.16-.9-2.34-2.14-.71-.74-1.63-1.36-3.47-2.6-1.48-1-1.42-.83-3.58-2.19-2.96-1.86-3.52-2.45-5.24-3.02-.83-.28-1.48-.49-2.4-.55-2.05-.12-3.29.67-3.7.13-.27-.35-.03-1.07.35-1.46.54-.57,1.4-.55,1.84-.54,4.76.19,10.24,2.12,11.23,2.61.71.36,1.3.71,1.3.71.96.58,1.37.98,3.45,2.06,2.22,1.16,3.84,2.01,5.94,2.56,3.86,1.01,6.64.36,6.69.7Z"/>
  </g>
</svg>
